<svg xmlns="http://www.w3.org/2000/svg" width="120" height="36" viewBox="0 0 120 36" fill="none">
  <path d="M72.3 21.3C65.9 26.1 56.5 28.5 48.4 28.5C37 28.5 26.9 24.3 19.4 17.1C18.8 16.5 19.3 15.7 20 16.2C28.2 21.3 38.5 24.3 49.2 24.3C56.3 24.3 64.2 22.8 71.5 20.1C72.7 19.6 73.7 20.7 72.3 21.3Z" fill="#FF9900"/>
  <path d="M75.4 17.7C74.6 16.7 69.6 17.3 67.4 17.6C66.7 17.7 66.6 17.1 67.2 16.7C71.1 14 77.5 14.8 78.2 15.6C78.9 16.4 78 22.1 74.4 25.1C73.8 25.6 73.3 25.3 73.6 24.7C74.6 22.5 76.2 18.7 75.4 17.7Z" fill="#FF9900"/>
  <path d="M67.3 5.9V3.6C67.3 3.3 67.5 3.1 67.8 3.1H79.7C80 3.1 80.2 3.3 80.2 3.6V5.5C80.2 5.8 79.9 6.1 79.6 6.5L73.5 15.1C75.8 15 78.3 15.3 80.4 16.4C80.8 16.6 80.9 16.9 80.9 17.2V19.5C80.9 19.8 80.6 20.1 80.2 19.9C76.5 18 71.5 17.8 67.5 19.9C67.2 20.1 66.8 19.8 66.8 19.5V17.3C66.8 17 66.8 16.5 67.1 16.1L74.1 6.3H67.8C67.5 6.3 67.3 6.1 67.3 5.9Z" fill="white"/>
  <path d="M24.4 20.1H20.7C20.4 20.1 20.2 19.9 20.2 19.6V3.6C20.2 3.3 20.4 3.1 20.7 3.1H24.1C24.4 3.1 24.6 3.3 24.6 3.6V5.6H24.7C25.6 3.8 27.1 2.7 29.1 2.7C31.1 2.7 32.4 3.8 33.4 5.6C34.3 3.8 36.2 2.7 38.1 2.7C39.5 2.7 41 3.3 41.9 4.5C43 5.9 42.8 7.9 42.8 9.7L42.8 19.5C42.8 19.8 42.6 20 42.3 20H38.6C38.3 20 38.1 19.8 38.1 19.5V11.3C38.1 10.5 38.2 8.7 38 7.9C37.8 6.8 37.1 6.4 36.1 6.4C35.3 6.4 34.5 6.9 34.1 7.7C33.7 8.5 33.8 9.8 33.8 11.3V19.5C33.8 19.8 33.6 20 33.3 20H29.6C29.3 20 29.1 19.8 29.1 19.5V11.3C29.1 9.5 29.4 6.3 27.1 6.3C24.8 6.3 24.9 9.4 24.9 11.3V19.5C24.9 19.8 24.7 20.1 24.4 20.1Z" fill="white"/>
  <path d="M89.8 2.7C95.2 2.7 98 7.3 98 13.1C98 18.7 94.8 23.1 89.8 23.1C84.5 23.1 81.7 18.5 81.7 12.8C81.7 7.1 84.6 2.7 89.8 2.7ZM89.8 6.3C87.4 6.3 87.2 9.5 87.2 11.7C87.2 13.9 87.1 19.5 89.8 19.5C92.4 19.5 92.6 15.1 92.6 12.7C92.6 11 92.5 9 92 7.9C91.6 6.9 90.8 6.3 89.8 6.3Z" fill="white"/>
  <path d="M104.3 20.1H100.6C100.3 20.1 100.1 19.9 100.1 19.6V3.5C100.1 3.2 100.4 3 100.7 3H104.1C104.4 3 104.6 3.2 104.6 3.4V5.7H104.7C105.7 3.7 107 2.7 109.2 2.7C110.7 2.7 112.2 3.3 113.1 4.7C113.9 5.9 113.9 8 113.9 9.5V19.7C113.9 20 113.6 20.2 113.3 20.2H109.6C109.3 20.2 109.1 20 109.1 19.7V11.1C109.1 9.3 109.3 6.3 107.1 6.3C106.3 6.3 105.5 6.8 105.1 7.6C104.6 8.6 104.5 9.6 104.5 11.1V19.6C104.5 19.9 104.3 20.1 104.3 20.1Z" fill="white"/>
  <path d="M60.1 11.9C60.1 13.3 60.1 14.5 59.3 15.7C58.6 16.7 57.6 17.3 56.4 17.3C54.8 17.3 53.8 16.3 53.8 14.5C53.8 10.9 57 10.3 60.1 10.3V11.9ZM63.9 20C63.7 20.2 63.4 20.2 63.2 20C62 19 61.7 18.4 61.1 17.5C59.1 19.4 57.7 20 55.1 20C52 20 49.7 18.1 49.7 14.3C49.7 11.3 51.3 9.3 53.6 8.3C55.6 7.4 58.3 7.2 60.1 6.9V6.5C60.1 5.7 60.2 4.8 59.7 4.1C59.3 3.5 58.5 3.2 57.8 3.2C56.5 3.2 55.4 3.9 55.1 5.3C55 5.6 54.8 5.9 54.5 5.9L50.9 5.5C50.6 5.4 50.4 5.2 50.5 4.9C51.3 1.3 54.6 0 57.6 0C59.1 0 61.1 0.4 62.3 1.6C63.8 3.1 63.6 5.1 63.6 7.3V12.4C63.6 14 64.3 14.7 64.9 15.6C65.1 15.9 65.2 16.2 64.9 16.4C64.2 17 62.9 18.1 62.2 18.8L63.9 20Z" fill="white"/>
  <path d="M11.2 11.9C11.2 13.3 11.2 14.5 10.4 15.7C9.7 16.7 8.7 17.3 7.5 17.3C5.9 17.3 4.9 16.3 4.9 14.5C4.9 10.9 8.1 10.3 11.2 10.3V11.9ZM15 20C14.8 20.2 14.5 20.2 14.3 20C13.1 19 12.8 18.4 12.2 17.5C10.2 19.4 8.8 20 6.2 20C3.1 20 0.8 18.1 0.8 14.3C0.8 11.3 2.4 9.3 4.7 8.3C6.7 7.4 9.4 7.2 11.2 6.9V6.5C11.2 5.7 11.3 4.8 10.8 4.1C10.4 3.5 9.6 3.2 8.9 3.2C7.6 3.2 6.5 3.9 6.2 5.3C6.1 5.6 5.9 5.9 5.6 5.9L2 5.5C1.7 5.4 1.5 5.2 1.6 4.9C2.4 1.3 5.7 0 8.7 0C10.2 0 12.2 0.4 13.4 1.6C14.9 3.1 14.7 5.1 14.7 7.3V12.4C14.7 14 15.4 14.7 16 15.6C16.2 15.9 16.3 16.2 16 16.4C15.3 17 14 18.1 13.3 18.8L15 20Z" fill="white"/>
</svg>