<svg xmlns="http://www.w3.org/2000/svg" width="48" height="16" viewBox="0 0 48 16" fill="none">
  <path d="M45.3 0H2.7C1.2 0 0 1.2 0 2.7v10.7C0 14.8 1.2 16 2.7 16h42.7c1.5 0 2.7-1.2 2.7-2.7V2.7C48 1.2 46.8 0 45.3 0z" fill="#00A8E1"/>
  <path d="M9.9 11.7c-2.1 0-3.7-1.5-3.7-3.7 0-2.1 1.5-3.7 3.7-3.7 1.5 0 2.6 0.7 3.2 1.9l-1.4 0.7c-0.3-0.7-0.9-1.1-1.8-1.1-1.2 0-2.1 0.9-2.1 2.2 0 1.3 0.9 2.2 2.1 2.2 0.9 0 1.5-0.4 1.8-1.1l1.4 0.7c-0.6 1.2-1.7 1.9-3.2 1.9z" fill="white"/>
  <path d="M16.5 11.6h-1.6V4.5h4.2c1.6 0 2.5 1.1 2.5 2.3 0 1.2-0.9 2.3-2.5 2.3h-2.6v2.5zm0-5.6v1.7h2.5c0.5 0 0.9-0.3 0.9-0.8 0-0.5-0.4-0.8-0.9-0.8h-2.5z" fill="white"/>
  <path d="M22.3 11.6V4.5h1.6v7.1h-1.6z" fill="white"/>
  <path d="M30.4 11.6l-3.1-4.3v4.3h-1.6V4.5h1.6l3 4.1V4.5h1.6v7.1h-1.5z" fill="white"/>
  <path d="M37.5 11.6h-4.1V4.5h4.1c2.1 0 3.7 1.5 3.7 3.6 0 2-1.6 3.5-3.7 3.5zm0-5.6h-2.5v4.1h2.5c1.2 0 2.1-0.9 2.1-2.1 0-1.2-0.9-2-2.1-2z" fill="white"/>
</svg>